<svg width="287" height="65" viewBox="0 0 287 65" fill="none" xmlns="http://www.w3.org/2000/svg"><path d="M33.629.759a31.5 31.5 0 0 1 37.127 39.505 1 1 0 1 1-1.92-.556 29.5 29.5 0 0 0-51.64-26.295 1 1 0 1 1-1.58-1.227A31.5 31.5 0 0 1 33.629.76z" fill="#fff"/><path d="M53.753 9.715a25.5 25.5 0 0 0-30.784 3.267 1 1 0 0 0 1.375 1.453A23.5 23.5 0 0 1 63.083 38a1 1 0 0 0 1.922.553 25.5 25.5 0 0 0-11.252-28.84z" fill="#fff"/><path d="M39.952 12.008a19.5 19.5 0 0 1 19.262 24.974 1 1 0 1 1-1.92-.563 17.5 17.5 0 0 0-27.47-18.786 1 1 0 1 1-1.22-1.585 19.5 19.5 0 0 1 11.348-4.04z" fill="#fff"/><path d="M48.141 20.37a13.5 13.5 0 0 0-15.865.424 1 1 0 1 0 1.218 1.586 11.5 11.5 0 0 1 18.034 12.382 1 1 0 0 0 1.918.567 13.499 13.499 0 0 0-5.305-14.958zM42 31.5a1.5 1.5 0 1 1-3 0 1.5 1.5 0 0 1 3 0z" fill="#fff"/><path fill-rule="evenodd" clip-rule="evenodd" d="M33 31.5a7.5 7.5 0 1 1 15 0 7.5 7.5 0 0 1-15 0zm7.5-5.5a5.5 5.5 0 1 0 0 11 5.5 5.5 0 0 0 0-11z" fill="#fff"/><path d="M25.041 42.916c1.66 1.367 2.49 3.232 2.49 5.596 0 2.422-1.006 4.365-3.017 5.83-2.012 1.465-4.678 2.197-7.998 2.197-3.73 0-6.72-.87-8.965-2.607-2.246-1.739-3.37-4.112-3.37-7.12H.579c0 2.5.645 4.717 1.934 6.65 1.308 1.934 3.213 3.438 5.713 4.513 2.52 1.074 5.283 1.61 8.29 1.61 4.395 0 7.93-1.015 10.606-3.046 2.695-2.031 4.043-4.727 4.043-8.086 0-2.129-.498-3.975-1.494-5.537-.996-1.563-2.48-2.9-4.453-4.014-1.973-1.133-4.873-2.217-8.701-3.252-3.828-1.054-6.612-2.265-8.35-3.632-1.738-1.368-2.607-3.135-2.607-5.303 0-2.344.966-4.238 2.9-5.684 1.934-1.465 4.531-2.197 7.793-2.197 3.36 0 6.035.889 8.027 2.666 1.992 1.758 2.989 4.092 2.989 7.002H30.9c0-2.402-.615-4.58-1.845-6.533-1.23-1.953-2.97-3.477-5.215-4.57-2.227-1.094-4.756-1.641-7.588-1.641-4.18 0-7.617 1.025-10.313 3.076-2.675 2.031-4.013 4.678-4.013 7.94 0 3.359 1.445 6.074 4.336 8.144 2.031 1.465 5.254 2.822 9.668 4.072 4.414 1.23 7.45 2.54 9.111 3.926zm16.265-.822l.078 1.875c1.24-1.459 2.912-2.188 5.016-2.188 2.365 0 3.974.907 4.828 2.719a6.427 6.427 0 0 1 2.188-1.969c.906-.5 1.974-.75 3.203-.75 3.708 0 5.593 1.964 5.656 5.89V59h-2.89V47.844c0-1.209-.277-2.11-.829-2.703-.552-.605-1.479-.907-2.781-.907-1.073 0-1.963.323-2.672.97-.708.635-1.12 1.494-1.234 2.577V59h-2.907V47.922c0-2.458-1.203-3.688-3.609-3.688-1.896 0-3.193.808-3.89 2.422V59h-2.891V42.094h2.734zM78.14 52.703c.594.427.891 1.031.891 1.813 0 .74-.333 1.333-1 1.78-.656.438-1.531.657-2.625.657-1.187 0-2.146-.281-2.875-.844-.719-.573-1.104-1.343-1.156-2.312h-2.89c0 1 .291 1.932.874 2.797.594.854 1.412 1.52 2.454 2 1.041.479 2.24.718 3.593.718 1.927 0 3.495-.453 4.703-1.359 1.209-.917 1.813-2.13 1.813-3.64 0-.907-.219-1.672-.656-2.297-.428-.636-1.089-1.177-1.985-1.625-.896-.448-2.068-.834-3.515-1.157-1.438-.323-2.433-.661-2.985-1.015-.552-.354-.828-.88-.828-1.578 0-.74.297-1.339.89-1.797.594-.459 1.417-.688 2.47-.688 1.02 0 1.864.287 2.53.86.678.573 1.016 1.255 1.016 2.047h2.907c0-1.542-.6-2.808-1.797-3.797-1.188-.99-2.74-1.485-4.656-1.485-1.823 0-3.323.48-4.5 1.438-1.167.958-1.75 2.13-1.75 3.515 0 .834.203 1.552.609 2.157.416.604 1.052 1.125 1.906 1.562.865.438 2.026.813 3.484 1.125 1.47.313 2.495.688 3.079 1.125zm28.033-49.079c-2.686 0-4.8.86-6.343 2.578-1.543 1.719-2.314 4.072-2.314 7.06 0 3.057.727 5.43 2.182 7.12 1.455 1.69 3.535 2.534 6.24 2.534 1.797 0 3.448-.23 4.952-.689v1.319c-1.416.498-3.184.747-5.303.747-3.008 0-5.376-.972-7.105-2.915-1.728-1.943-2.592-4.658-2.592-8.145 0-2.177.41-4.096 1.23-5.756.83-1.66 2.017-2.94 3.56-3.838 1.552-.909 3.354-1.363 5.405-1.363 2.09 0 3.96.391 5.61 1.172l-.6 1.348a10.867 10.867 0 0 0-4.922-1.172zm10.503 20.669c-1.162 0-2.1-.146-2.813-.44v-1.508c.84.361 1.729.542 2.666.542.703 0 1.304-.117 1.802-.352.508-.244.977-.63 1.406-1.157.43-.537.952-1.43 1.568-2.68l-8.526-16.114h1.773l6.548 12.51c.341.674.649 1.372.922 2.095h.059l.366-.894L128.6 2.584h1.67l-6.871 15.059c-.439.966-.859 1.86-1.259 2.68a10.61 10.61 0 0 1-1.333 2.095 5.404 5.404 0 0 1-1.714 1.377c-.655.332-1.46.498-2.417.498zM142.721 24l-7.984-19.775h-.117c.078 1.21.117 2.45.117 3.72V24h-1.435V2.584h2.314l7.588 18.838h.088l7.588-18.838h2.256V24h-1.509V7.77c0-1.133.059-2.305.176-3.516h-.117L143.673 24h-.952zM159.2 2.584h1.436v14.004c0 .996-.039 2.666-.117 5.01h.087l12.657-19.014h1.508V24h-1.45V10.084c0-1.582.064-3.291.191-5.127h-.117L160.694 24H159.2V2.584zM106.451 59l-7.983-19.775h-.117c.078 1.21.117 2.45.117 3.72V59h-1.436V37.584h2.315l7.588 18.838h.087l7.588-18.838h2.256V59h-1.509V42.77c0-1.133.059-2.305.176-3.516h-.117L107.403 59h-.952zm28.184 0h-11.704V37.584h11.704v1.377h-10.21v8.1h9.638v1.377h-9.638v9.185h10.21V59zm20.508 5.405h-1.436V59h-15.601v5.405h-1.45v-6.811h1.538c1.446-2.51 2.715-5.694 3.809-9.551 1.094-3.867 1.704-7.353 1.831-10.459h9.111v20.01h2.198v6.811zm-3.721-6.811V38.99h-6.299c-.234 3.076-.85 6.392-1.846 9.947-.996 3.554-2.133 6.44-3.413 8.657h11.558zM159.083 59V37.584h1.494V59h-1.494zm17.871-7.559h-8.701L165.265 59h-1.656l8.614-21.504h.952L181.612 59h-1.684l-2.974-7.559zm-8.159-1.347h7.661l-2.915-7.72a37.676 37.676 0 0 1-.879-2.52 23.67 23.67 0 0 1-.864 2.55l-3.003 7.69zm32.798-11.47c-2.686 0-4.8.86-6.343 2.578-1.543 1.719-2.314 4.072-2.314 7.06 0 3.057.727 5.43 2.182 7.12 1.455 1.69 3.535 2.534 6.24 2.534 1.797 0 3.448-.23 4.952-.688v1.318c-1.416.498-3.184.747-5.303.747-3.008 0-5.376-.972-7.105-2.915-1.728-1.943-2.592-4.658-2.592-8.145 0-2.177.41-4.096 1.23-5.756.83-1.66 2.017-2.94 3.56-3.838 1.552-.909 3.354-1.363 5.405-1.363 2.09 0 3.96.391 5.61 1.172l-.6 1.348a10.867 10.867 0 0 0-4.922-1.172zM222.789 59h-11.704V37.584h11.704v1.377h-10.21v8.1h9.639v1.377h-9.639v9.185h10.21V59zm17.739-15.264c0 2.07-.703 3.658-2.109 4.761-1.406 1.104-3.399 1.655-5.977 1.655h-3.31V59h-1.494V37.584h5.244c5.097 0 7.646 2.05 7.646 6.152zm-11.396 5.127h2.944c2.412 0 4.155-.395 5.23-1.186 1.074-.801 1.611-2.095 1.611-3.882 0-1.65-.508-2.871-1.523-3.662-1.016-.801-2.588-1.201-4.717-1.201h-3.545v9.931zm16.055-11.279h5.874c2.646 0 4.589.45 5.83 1.348 1.24.898 1.86 2.255 1.86 4.072 0 1.24-.381 2.275-1.143 3.105-.752.82-1.855 1.348-3.31 1.582v.088c1.709.254 2.964.796 3.764 1.626.811.82 1.216 1.968 1.216 3.443 0 1.972-.654 3.49-1.963 4.555-1.308 1.065-3.164 1.597-5.566 1.597h-6.562V37.584zm1.494 9.536h4.716c2.012 0 3.472-.332 4.38-.996.918-.674 1.377-1.724 1.377-3.15 0-1.425-.517-2.46-1.552-3.105-1.026-.644-2.559-.967-4.6-.967h-4.321v8.218zm0 1.319v9.243h5.039c3.965 0 5.947-1.612 5.947-4.834 0-2.94-2.09-4.41-6.27-4.41h-4.716zM263.995 59V37.584h1.494V59h-1.494zm16.699-20.376c-2.685 0-4.799.86-6.342 2.578-1.543 1.719-2.315 4.072-2.315 7.06 0 3.057.728 5.43 2.183 7.12 1.455 1.69 3.535 2.534 6.24 2.534 1.797 0 3.447-.23 4.951-.688v1.318c-1.416.498-3.183.747-5.303.747-3.007 0-5.376-.972-7.104-2.915-1.729-1.943-2.593-4.658-2.593-8.145 0-2.177.41-4.096 1.231-5.756.83-1.66 2.016-2.94 3.559-3.838 1.553-.909 3.355-1.363 5.405-1.363 2.09 0 3.96.391 5.611 1.172l-.601 1.348a10.864 10.864 0 0 0-4.922-1.172z" fill="#fff"/></svg>