<svg width="1600" height="267" viewBox="0 0 1600 267" fill="none" xmlns="http://www.w3.org/2000/svg"><g clip-path="url(#clip0)" stroke-miterlimit="10" stroke-linecap="round" stroke-linejoin="round"><path d="M1600 139.677c-17.02-58.902-38.48-30.948-42.18-20.632l-9.62 26.289c-8.88 23.961-19.98 23.961-25.16-.332l-8.14-41.598c-8.88-44.592-19.99-44.592-25.17.333l-8.14 72.213c-5.18 44.593-16.28 44.925-25.16.333l-9.62-49.917c-3.7-19.634-14.8-19.967-25.16-.666l-5.18 9.651c-5.92 11.315-17.02 11.315-24.42.333l-8.14-11.98c-5.92-8.32-16.28-8.32-23.68-.333l-11.1 12.313c-4.44 5.324-14.8 5.657-22.2.998l-9.62-5.99c-5.92-3.66-14.8-3.66-20.73 0l-4.44 2.662c-10.36 6.323-20.72 5.325-22.94-2.662l-8.88-28.619c-7.4-25.291-18.5-25.291-25.16 0l-12.58 49.584c-5.18 20.633-16.28 20.965-25.16.333l-1.48-3.993c-8.88-20.633-19.98-20.3-25.16.332l-8.14 33.611c-8.88 35.275-19.98 35.275-25.16-.333l-14.8-99.168c-5.18-33.278-16.28-33.278-25.17-.333l-12.58 47.921c-2.22 7.986-12.58 9.317-22.94 2.662l-2.96-1.664c-6.66-3.993-15.54-3.661-21.46.333l-2.96 1.996c-7.4 5.99-17.76 5.658-22.94-.998l-8.14-10.649c-8.88-11.98-19.981-11.315-24.421.998l-14.061 37.937c-5.92 15.641-17.021 15.641-25.161.333l-11.101-21.298c-4.44-8.652-14.8-9.318-23.681-1.331l-5.92 5.657c-5.92 5.99-16.281 5.99-22.941 0l-12.581-11.647c-5.18-4.659-14.801-5.324-21.461-.998l-5.18 3.327c-8.881 5.325-18.501 4.659-22.201-1.663l-5.921-10.317c-7.4-12.313-18.501-12.312-24.421.333l-11.84 24.959c-5.181 10.981-16.281 11.314-24.422.665l-10.36-14.309c-4.44-5.658-14.061-6.323-22.201-1.331l-2.96 1.996c-8.881 5.325-18.501 4.659-22.202-1.664l-11.84-19.301c-8.141-12.978-19.241-12.978-24.421.333l-8.881 20.632c-7.4 18.303-19.241 18.303-25.161-.333l-8.881-26.289c-7.4-23.295-18.5-22.962-25.161 0l-6.66 24.958c-8.141 30.283-19.241 30.283-25.161-.332l-3.701-17.971c-7.4-38.27-18.501-38.27-25.161 0l-7.4 42.263c-7.401 41.598-18.501 41.598-25.161 0l-8.141-50.582c-7.4-46.59-18.501-46.59-25.161 0l-8.881 65.89c-6.66 46.257-17.76 46.257-25.161 0l-8.14-49.584c-2.96-18.303-14.061-18.636-25.162-.998l-8.88 14.975c-5.92 9.983-17.021 9.983-24.421.333l-8.141-10.982c-6.66-8.652-17.02-8.652-23.681 0l-5.92 7.987c-4.44 5.657-14.801 6.322-22.201 1.331l-8.881-5.325c-5.92-3.66-14.8-3.66-20.721 0l-5.18 3.328c-9.62 5.99-19.981 4.992-22.941-2.329l-11.841-31.282c-8.88-23.96-19.981-23.96-25.161.333l-13.321 68.886c-5.92 29.617-17.02 29.617-25.161.332l-10.36-39.6c-4.441-16.307-15.541-16.639-25.162-.666l-7.4 12.313c-5.18 8.652-15.541 8.985-23.681.998l-8.14-8.652c-5.92-5.657-15.541-5.99-22.942-.666-7.4 5.99-17.76 5.658-22.94-.998l-10.361-13.644C27.422 108.396 15.58 105.068 3 133.687" stroke="#249C4D" stroke-opacity=".8"/><path d="M1 135.283l16.294-28.849c9.628-16.91 19.996-15.916 24.44 2.321l9.628 45.76c8.888 42.112 19.997 41.78 25.181-.663L84.69 80.57c8.888-78.255 19.997-77.924 25.181.332l8.147 126.667c5.184 78.588 16.294 78.588 25.181.332l9.628-87.54c3.703-34.485 14.813-35.149 25.181-1.326l5.185 16.911c5.925 19.564 17.034 19.895 24.44.663l8.147-21.222c5.925-14.59 16.294-14.921 23.7-.663l11.109 21.885c4.444 9.285 14.813 10.279 22.219 1.99l9.628-10.611c5.925-6.301 14.812-6.301 20.737 0l4.444 4.642c10.369 11.274 20.737 9.284 22.959-4.311l8.888-50.07c7.406-44.102 18.515-44.102 25.181.332l11.85 86.876c5.184 36.144 16.293 36.475 25.181.664l1.481-6.632c8.887-36.144 19.997-35.812 25.181.663l8.147 59.023c8.887 62.008 19.997 62.008 25.181-.331l14.812-174.417c5.185-58.36 16.294-58.692 25.182-.663l12.59 83.892c2.222 13.927 12.591 16.248 22.959 4.642l2.963-2.984c6.665-6.963 15.553-6.632 21.478.995l2.962 3.647c7.407 10.611 17.775 9.948 22.96-1.658l8.146-18.9c8.888-20.89 19.997-20.227 24.441 1.658l14.072 66.649c5.925 27.522 17.034 27.522 25.181.664l11.109-37.139c4.444-15.584 14.812-16.248 23.7-1.989l5.925 9.948c5.925 10.279 16.294 10.279 22.959 0l12.591-20.559c5.184-8.29 14.812-8.953 21.478-1.658l5.184 5.637c8.887 9.616 18.515 7.958 22.219-3.316l5.925-17.906c7.406-21.885 18.515-21.553 24.44.332l11.85 43.77c5.184 19.232 16.294 19.895 24.44.995l10.369-25.201c4.444-10.28 14.072-11.274 22.219-2.653l2.962 3.647c8.888 9.285 18.516 7.959 22.219-3.315l11.85-34.154c8.147-22.88 19.256-22.549 24.44.663l8.888 36.475c7.406 32.164 19.256 31.833 25.181-.332l8.887-46.09c7.407-40.455 18.513-40.455 25.183.33l6.66 44.102c8.15 53.386 19.26 53.055 25.19-.331l3.7-31.833c7.4-67.313 18.51-67.313 25.18 0l7.41 73.945c7.4 73.281 18.51 72.95 25.18 0l8.14-88.867c7.41-81.903 18.52-81.903 25.18 0l9.63 115.062c6.67 81.24 17.78 81.572 25.18 0l8.15-86.876c2.96-32.165 14.07-32.828 25.18-1.99l8.89 26.527c5.92 17.243 17.03 17.575 24.44.664l8.15-19.233c6.66-15.253 17.03-15.253 23.7 0l5.92 13.927c4.44 9.948 14.81 11.274 22.22 2.653l8.89-9.616c5.92-6.301 14.81-6.301 20.73 0l5.19 5.637c9.63 10.942 20 8.953 22.96-4.311l11.85-55.044c8.89-42.112 19.99-41.78 25.18.663l13.33 121.031c5.93 52.06 17.03 52.06 25.18.331l10.37-68.639c4.44-28.848 15.55-29.512 25.18-1.326l7.41 21.885c5.18 15.253 15.55 15.916 23.7 1.658l8.14-14.922c5.93-9.948 15.56-10.279 22.96-.995 7.41 10.611 17.78 9.948 22.96-1.658l10.37-23.874c7.41-18.238 18.52-17.906 24.44.995l9.63 31.169" stroke="#9EEC87" stroke-opacity=".5"/></g><defs><clipPath id="clip0"><path fill="#fff" d="M0 0h1601v267H0z"/></clipPath></defs></svg>