<svg width="287" height="65" viewBox="0 0 287 65" fill="none" xmlns="http://www.w3.org/2000/svg">
<path d="M33.629 0.758543C40.7798 -0.839713 48.264 0.104862 54.7935 3.42967C61.3229 6.75448 66.4891 12.2515 69.4026 18.9746C72.3162 25.6976 72.7949 33.226 70.7563 40.2639C70.6026 40.7944 70.048 41.0999 69.5176 40.9462C68.9871 40.7926 68.6816 40.238 68.8353 39.7075C70.7444 33.1164 70.2961 26.066 67.5675 19.7698C64.839 13.4736 60.0008 8.32563 53.886 5.21192C47.7711 2.09821 40.762 1.21361 34.0653 2.71038C27.3685 4.20716 21.403 7.99168 17.1957 13.4125C16.8571 13.8488 16.2289 13.928 15.7926 13.5893C15.3563 13.2507 15.2771 12.6225 15.6157 12.1862C20.1083 6.39789 26.4782 2.3568 33.629 0.758543Z" fill="white"/>
<path d="M53.753 9.71454C48.9738 6.80715 43.3711 5.552 37.8083 6.14249C32.2455 6.73298 27.0312 9.13634 22.9688 12.9822C22.5678 13.3619 22.5504 13.9949 22.9301 14.3959C23.3098 14.797 23.9428 14.8143 24.3438 14.4346C28.0876 10.8904 32.8929 8.6755 38.0194 8.13132C43.1459 7.58714 48.3092 8.74385 52.7135 11.4232C57.1179 14.1026 60.519 18.1559 62.3928 22.9586C64.2666 27.7614 64.509 33.047 63.0828 38.0012C62.9301 38.5319 63.2364 39.086 63.7672 39.2388C64.2979 39.3916 64.852 39.0852 65.0048 38.5544C66.5523 33.1787 66.2892 27.4432 64.256 22.2317C62.2227 17.0202 58.5322 12.6219 53.753 9.71454Z" fill="white"/>
<path d="M39.9518 12.0077C44.0657 11.892 48.1108 13.0809 51.5079 15.4042C54.905 17.7275 57.48 21.066 58.8641 24.9419C60.2482 28.8177 60.3706 33.0322 59.2136 36.9818C59.0584 37.5118 58.5028 37.8156 57.9728 37.6603C57.4428 37.5051 57.139 36.9496 57.2943 36.4195C58.3326 32.875 58.2228 29.0928 56.9806 25.6145C55.7384 22.1362 53.4276 19.14 50.3789 17.055C47.3302 14.97 43.7 13.9031 40.008 14.0069C36.316 14.1108 32.7515 15.3801 29.8248 17.6331C29.3872 17.97 28.7593 17.8884 28.4224 17.4508C28.0855 17.0131 28.1671 16.3853 28.6048 16.0484C31.8659 13.5378 35.8378 12.1234 39.9518 12.0077Z" fill="white"/>
<path d="M48.1411 20.3706C45.7906 18.7569 42.9896 17.9287 40.1395 18.0048C37.2894 18.0809 34.5366 19.0575 32.2757 20.7944C31.8377 21.1308 31.7554 21.7586 32.0919 22.1966C32.4283 22.6346 33.0561 22.7169 33.4941 22.3804C35.4201 20.9008 37.7651 20.069 40.1929 20.0041C42.6208 19.9393 45.0068 20.6447 47.0091 22.0194C49.0113 23.3941 50.5269 25.3674 51.3387 27.6564C52.1504 29.9455 52.2166 32.4327 51.5277 34.7617C51.3711 35.2913 51.6734 35.8476 52.203 36.0043C52.7326 36.1609 53.289 35.8586 53.4456 35.329C54.2543 32.595 54.1766 29.6751 53.2236 26.988C52.2707 24.3008 50.4915 21.9843 48.1411 20.3706Z" fill="white"/>
<path d="M42 31.5C42 32.3284 41.3284 33 40.5 33C39.6716 33 39 32.3284 39 31.5C39 30.6716 39.6716 30 40.5 30C41.3284 30 42 30.6716 42 31.5Z" fill="white"/>
<path fill-rule="evenodd" clip-rule="evenodd" d="M33 31.5C33 27.3579 36.3578 24 40.5 24C44.6421 24 48 27.3579 48 31.5C48 35.6421 44.6421 39 40.5 39C36.3578 39 33 35.6421 33 31.5ZM40.5 26C37.4624 26 35 28.4624 35 31.5C35 34.5376 37.4624 37 40.5 37C43.5376 37 46 34.5376 46 31.5C46 28.4624 43.5376 26 40.5 26Z" fill="white"/>
<path d="M25.041 42.916C26.7012 44.2832 27.5312 46.1484 27.5312 48.5117C27.5312 50.9336 26.5254 52.877 24.5137 54.3418C22.502 55.8066 19.8359 56.5391 16.5156 56.5391C12.7852 56.5391 9.79688 55.6699 7.55078 53.9316C5.30469 52.1934 4.18164 49.8203 4.18164 46.8125H0.578125C0.578125 49.3125 1.22266 51.5293 2.51172 53.4629C3.82031 55.3965 5.72461 56.9004 8.22461 57.9746C10.7441 59.0488 13.5078 59.5859 16.5156 59.5859C20.9102 59.5859 24.4453 58.5703 27.1211 56.5391C29.8164 54.5078 31.1641 51.8125 31.1641 48.4531C31.1641 46.3242 30.666 44.4785 29.6699 42.916C28.6738 41.3535 27.1895 40.0156 25.2168 38.9023C23.2441 37.7695 20.3438 36.6855 16.5156 35.6504C12.6875 34.5957 9.9043 33.3848 8.16602 32.0176C6.42773 30.6504 5.55859 28.8828 5.55859 26.7148C5.55859 24.3711 6.52539 22.4766 8.45898 21.0312C10.3926 19.5664 12.9902 18.834 16.252 18.834C19.6113 18.834 22.2871 19.7227 24.2793 21.5C26.2715 23.2578 27.2676 25.5918 27.2676 28.502H30.9004C30.9004 26.0996 30.2852 23.9219 29.0547 21.9688C27.8242 20.0156 26.0859 18.4922 23.8398 17.3984C21.6133 16.3047 19.084 15.7578 16.252 15.7578C12.0723 15.7578 8.63477 16.7832 5.93945 18.834C3.26367 20.8652 1.92578 23.5117 1.92578 26.7734C1.92578 30.1328 3.37109 32.8477 6.26172 34.918C8.29297 36.3828 11.5156 37.7402 15.9297 38.9902C20.3438 40.2207 23.3809 41.5293 25.041 42.916Z" fill="white"/>
<path d="M41.3063 42.0938L41.3844 43.9688C42.624 42.5104 44.2958 41.7812 46.4 41.7812C48.7646 41.7812 50.374 42.6875 51.2281 44.5C51.7906 43.6875 52.5198 43.0312 53.4156 42.5312C54.3219 42.0312 55.3896 41.7812 56.6188 41.7812C60.3271 41.7812 62.2125 43.7448 62.275 47.6719V59H59.3844V47.8438C59.3844 46.6354 59.1083 45.7344 58.5563 45.1406C58.0042 44.5365 57.0771 44.2344 55.775 44.2344C54.7021 44.2344 53.8115 44.5573 53.1031 45.2031C52.3948 45.8385 51.9833 46.6979 51.8688 47.7812V59H48.9625V47.9219C48.9625 45.4635 47.7594 44.2344 45.3531 44.2344C43.4573 44.2344 42.1604 45.0417 41.4625 46.6562V59H38.5719V42.0938H41.3063Z" fill="white"/>
<path d="M78.1406 52.7031C78.7344 53.1302 79.0312 53.7344 79.0312 54.5156C79.0312 55.2552 78.6979 55.849 78.0312 56.2969C77.375 56.7344 76.5 56.9531 75.4062 56.9531C74.2187 56.9531 73.2604 56.6719 72.5312 56.1094C71.8125 55.5365 71.4271 54.7656 71.375 53.7969H68.4844C68.4844 54.7969 68.776 55.7292 69.3594 56.5938C69.9531 57.4479 70.7708 58.1146 71.8125 58.5938C72.8541 59.0729 74.0521 59.3125 75.4062 59.3125C77.3333 59.3125 78.901 58.8594 80.1094 57.9531C81.3177 57.0365 81.9219 55.8229 81.9219 54.3125C81.9219 53.4062 81.7031 52.6406 81.2656 52.0156C80.8385 51.3802 80.1771 50.8385 79.2812 50.3906C78.3854 49.9427 77.2135 49.5573 75.7656 49.2344C74.3281 48.9115 73.3333 48.5729 72.7812 48.2188C72.2291 47.8646 71.9531 47.3385 71.9531 46.6406C71.9531 45.901 72.25 45.3021 72.8437 44.8438C73.4375 44.3854 74.2604 44.1562 75.3125 44.1562C76.3333 44.1562 77.1771 44.4427 77.8437 45.0156C78.5208 45.5885 78.8594 46.2708 78.8594 47.0625H81.7656C81.7656 45.5208 81.1666 44.2552 79.9687 43.2656C78.7812 42.276 77.2291 41.7812 75.3125 41.7812C73.4896 41.7812 71.9896 42.2604 70.8125 43.2188C69.6458 44.1771 69.0625 45.349 69.0625 46.7344C69.0625 47.5677 69.2656 48.2865 69.6719 48.8906C70.0885 49.4948 70.7239 50.0156 71.5781 50.4531C72.4427 50.8906 73.6041 51.2656 75.0625 51.5781C76.5312 51.8906 77.5573 52.2656 78.1406 52.7031Z" fill="white"/>
<path d="M106.173 3.62402C103.487 3.62402 101.373 4.4834 99.8301 6.20215C98.2871 7.9209 97.5156 10.2744 97.5156 13.2627C97.5156 16.3193 98.2431 18.6924 99.6982 20.3818C101.153 22.0713 103.233 22.916 105.938 22.916C107.735 22.916 109.386 22.6865 110.89 22.2275V23.5459C109.474 24.0439 107.706 24.293 105.587 24.293C102.579 24.293 100.211 23.3213 98.4824 21.3779C96.7539 19.4346 95.8896 16.7197 95.8896 13.2334C95.8896 11.0557 96.2998 9.13672 97.1201 7.47656C97.9502 5.81641 99.1367 4.53711 100.68 3.63867C102.232 2.73047 104.034 2.27637 106.085 2.27637C108.175 2.27637 110.045 2.66699 111.695 3.44824L111.095 4.7959C109.532 4.01465 107.892 3.62402 106.173 3.62402Z" fill="white"/>
<path d="M116.676 24.293C115.514 24.293 114.576 24.1465 113.863 23.8535V22.3447C114.703 22.7061 115.592 22.8867 116.529 22.8867C117.232 22.8867 117.833 22.7695 118.331 22.5352C118.839 22.291 119.308 21.9053 119.737 21.3779C120.167 20.8408 120.689 19.9473 121.305 18.6973L112.779 2.58398H114.552L121.1 15.0938C121.441 15.7676 121.749 16.4658 122.022 17.1885H122.081L122.447 16.2949L128.6 2.58398H130.27L123.399 17.6426C122.96 18.6094 122.54 19.5029 122.14 20.3232C121.739 21.1338 121.295 21.832 120.807 22.418C120.318 23.0039 119.747 23.4629 119.093 23.7949C118.438 24.127 117.633 24.293 116.676 24.293Z" fill="white"/>
<path d="M142.721 24L134.737 4.22461H134.62C134.698 5.43555 134.737 6.67578 134.737 7.94531V24H133.302V2.58398H135.616L143.204 21.4219H143.292L150.88 2.58398H153.136V24H151.627V7.76953C151.627 6.63672 151.686 5.46484 151.803 4.25391H151.686L143.673 24H142.721Z" fill="white"/>
<path d="M159.2 2.58398H160.636V16.5879C160.636 17.584 160.597 19.2539 160.519 21.5977H160.606L173.263 2.58398H174.771V24H173.321V10.084C173.321 8.50195 173.385 6.79297 173.512 4.95703H173.395L160.694 24H159.2V2.58398Z" fill="white"/>
<path d="M106.451 59L98.4678 39.2246H98.3506C98.4287 40.4355 98.4678 41.6758 98.4678 42.9453V59H97.0322V37.584H99.3467L106.935 56.4219H107.022L114.61 37.584H116.866V59H115.357V42.7695C115.357 41.6367 115.416 40.4648 115.533 39.2539H115.416L107.403 59H106.451Z" fill="white"/>
<path d="M134.635 59H122.931V37.584H134.635V38.9609H124.425V47.0615H134.063V48.4385H124.425V57.623H134.635V59Z" fill="white"/>
<path d="M155.143 64.4053H153.707V59H138.106V64.4053H136.656V57.5938H138.194C139.64 55.084 140.909 51.9004 142.003 48.043C143.097 44.1758 143.707 40.6895 143.834 37.584H152.945V57.5938H155.143V64.4053ZM151.422 57.5938V38.9902H145.123C144.889 42.0664 144.273 45.3818 143.277 48.9365C142.281 52.4912 141.144 55.377 139.864 57.5938H151.422Z" fill="white"/>
<path d="M159.083 59V37.584H160.577V59H159.083Z" fill="white"/>
<path d="M176.954 51.4414H168.253L165.265 59H163.609L172.223 37.4961H173.175L181.612 59H179.928L176.954 51.4414ZM168.795 50.0938H176.456L173.541 42.374C173.297 41.7686 173.004 40.9287 172.662 39.8545C172.398 40.792 172.11 41.6416 171.798 42.4033L168.795 50.0938Z" fill="white"/>
<path d="M201.593 38.624C198.907 38.624 196.793 39.4834 195.25 41.2021C193.707 42.9209 192.936 45.2744 192.936 48.2627C192.936 51.3193 193.663 53.6924 195.118 55.3818C196.573 57.0713 198.653 57.916 201.358 57.916C203.155 57.916 204.806 57.6865 206.31 57.2275V58.5459C204.894 59.0439 203.126 59.293 201.007 59.293C197.999 59.293 195.631 58.3213 193.902 56.3779C192.174 54.4346 191.31 51.7197 191.31 48.2334C191.31 46.0557 191.72 44.1367 192.54 42.4766C193.37 40.8164 194.557 39.5371 196.1 38.6387C197.652 37.7305 199.454 37.2764 201.505 37.2764C203.595 37.2764 205.465 37.667 207.115 38.4482L206.515 39.7959C204.952 39.0146 203.312 38.624 201.593 38.624Z" fill="white"/>
<path d="M222.789 59H211.085V37.584H222.789V38.9609H212.579V47.0615H222.218V48.4385H212.579V57.623H222.789V59Z" fill="white"/>
<path d="M240.528 43.7363C240.528 45.8066 239.825 47.3936 238.419 48.4971C237.013 49.6006 235.02 50.1523 232.442 50.1523H229.132V59H227.638V37.584H232.882C237.979 37.584 240.528 39.6348 240.528 43.7363ZM229.132 48.8633H232.076C234.488 48.8633 236.231 48.4678 237.306 47.6768C238.38 46.876 238.917 45.582 238.917 43.7949C238.917 42.1445 238.409 40.9238 237.394 40.1328C236.378 39.332 234.806 38.9316 232.677 38.9316H229.132V48.8633Z" fill="white"/>
<path d="M245.187 37.584H251.061C253.707 37.584 255.65 38.0332 256.891 38.9316C258.131 39.8301 258.751 41.1875 258.751 43.0039C258.751 44.2441 258.37 45.2793 257.608 46.1094C256.856 46.9297 255.753 47.457 254.298 47.6914V47.7793C256.007 48.0332 257.262 48.5752 258.062 49.4053C258.873 50.2256 259.278 51.373 259.278 52.8477C259.278 54.8203 258.624 56.3389 257.315 57.4033C256.007 58.4678 254.151 59 251.749 59H245.187V37.584ZM246.681 47.1201H251.397C253.409 47.1201 254.869 46.7881 255.777 46.124C256.695 45.4502 257.154 44.4004 257.154 42.9746C257.154 41.5488 256.637 40.5137 255.602 39.8691C254.576 39.2246 253.043 38.9023 251.002 38.9023H246.681V47.1201ZM246.681 48.4385V57.6816H251.72C255.685 57.6816 257.667 56.0703 257.667 52.8477C257.667 49.9082 255.577 48.4385 251.397 48.4385H246.681Z" fill="white"/>
<path d="M263.995 59V37.584H265.489V59H263.995Z" fill="white"/>
<path d="M280.694 38.624C278.009 38.624 275.895 39.4834 274.352 41.2021C272.809 42.9209 272.037 45.2744 272.037 48.2627C272.037 51.3193 272.765 53.6924 274.22 55.3818C275.675 57.0713 277.755 57.916 280.46 57.916C282.257 57.916 283.907 57.6865 285.411 57.2275V58.5459C283.995 59.0439 282.228 59.293 280.108 59.293C277.101 59.293 274.732 58.3213 273.004 56.3779C271.275 54.4346 270.411 51.7197 270.411 48.2334C270.411 46.0557 270.821 44.1367 271.642 42.4766C272.472 40.8164 273.658 39.5371 275.201 38.6387C276.754 37.7305 278.556 37.2764 280.606 37.2764C282.696 37.2764 284.566 37.667 286.217 38.4482L285.616 39.7959C284.054 39.0146 282.413 38.624 280.694 38.624Z" fill="white"/>
</svg>
