<svg width="1600" height="267" viewBox="0 0 1600 267" fill="none" xmlns="http://www.w3.org/2000/svg">
<g clip-path="url(#clip0)">
<path d="M1600 139.677C1582.98 80.7751 1561.52 108.729 1557.82 119.045L1548.2 145.334C1539.32 169.295 1528.22 169.295 1523.04 145.002L1514.9 103.404C1506.02 58.8116 1494.91 58.8116 1489.73 103.737L1481.59 175.95C1476.41 220.543 1465.31 220.875 1456.43 176.283L1446.81 126.366C1443.11 106.732 1432.01 106.399 1421.65 125.7L1416.47 135.351C1410.55 146.666 1399.45 146.666 1392.05 135.684L1383.91 123.704C1377.99 115.384 1367.63 115.384 1360.23 123.371L1349.13 135.684C1344.69 141.008 1334.33 141.341 1326.93 136.682L1317.31 130.692C1311.39 127.032 1302.51 127.032 1296.58 130.692L1292.14 133.354C1281.78 139.677 1271.42 138.679 1269.2 130.692L1260.32 102.073C1252.92 76.7817 1241.82 76.7817 1235.16 102.073L1222.58 151.657C1217.4 172.29 1206.3 172.622 1197.42 151.99L1195.94 147.997C1187.06 127.364 1175.96 127.697 1170.78 148.329L1162.64 181.94C1153.76 217.215 1142.66 217.215 1137.48 181.607L1122.68 82.439C1117.5 49.161 1106.4 49.161 1097.51 82.1062L1084.93 130.027C1082.71 138.013 1072.35 139.344 1061.99 132.689L1059.03 131.025C1052.37 127.032 1043.49 127.364 1037.57 131.358L1034.61 133.354C1027.21 139.344 1016.85 139.012 1011.67 132.356L1003.53 121.707C994.65 109.727 983.549 110.392 979.109 122.705L965.048 160.642C959.128 176.283 948.027 176.283 939.887 160.975L928.786 139.677C924.346 131.025 913.986 130.359 905.105 138.346L899.185 144.003C893.265 149.993 882.904 149.993 876.244 144.003L863.663 132.356C858.483 127.697 848.862 127.032 842.202 131.358L837.022 134.685C828.141 140.01 818.521 139.344 814.821 133.022L808.9 122.705C801.5 110.392 790.399 110.393 784.479 123.038L772.639 147.997C767.458 158.978 756.358 159.311 748.217 148.662L737.857 134.353C733.417 128.695 723.796 128.03 715.656 133.022L712.696 135.018C703.815 140.343 694.195 139.677 690.494 133.354L678.654 114.053C670.513 101.075 659.413 101.075 654.233 114.386L645.352 135.018C637.952 153.321 626.111 153.321 620.191 134.685L611.31 108.396C603.91 85.1012 592.81 85.434 586.149 108.396L579.489 133.354C571.348 163.637 560.248 163.637 554.328 133.022L550.627 115.051C543.227 76.7817 532.126 76.7817 525.466 115.051L518.066 157.314C510.665 198.912 499.565 198.912 492.905 157.314L484.764 106.732C477.364 60.1427 466.263 60.1427 459.603 106.732L450.722 172.622C444.062 218.879 432.962 218.879 425.561 172.622L417.421 123.038C414.461 104.735 403.36 104.402 392.259 122.04L383.379 137.015C377.459 146.998 366.358 146.998 358.958 137.348L350.817 126.366C344.157 117.714 333.797 117.714 327.136 126.366L321.216 134.353C316.776 140.01 306.415 140.675 299.015 135.684L290.134 130.359C284.214 126.699 275.334 126.699 269.413 130.359L264.233 133.687C254.613 139.677 244.252 138.679 241.292 131.358L229.451 100.076C220.571 76.1162 209.47 76.1162 204.29 100.409L190.969 169.295C185.049 198.912 173.949 198.912 165.808 169.627L155.448 130.027C151.007 113.72 139.907 113.388 130.286 129.361L122.886 141.674C117.706 150.326 107.345 150.659 99.2048 142.672L91.0644 134.02C85.1441 128.363 75.5236 128.03 68.1233 133.354C60.7229 139.344 50.3624 139.012 45.1821 132.356L34.8216 118.712C27.4212 108.396 15.5806 105.068 3 133.687" stroke="#249C4D" stroke-opacity="0.8" stroke-miterlimit="10" stroke-linecap="round" stroke-linejoin="round"/>
<path d="M1 135.283L17.2937 106.434C26.9217 89.5231 37.2904 90.5179 41.7341 108.755L51.3622 154.515C60.2497 196.627 71.359 196.295 76.5433 153.852L84.6901 80.5702C93.5776 2.31472 104.687 2.64632 109.871 80.9018L118.018 207.569C123.202 286.157 134.312 286.157 143.199 207.901L152.827 120.361C156.53 85.8756 167.64 85.2124 178.008 119.035L183.193 135.946C189.118 155.51 200.227 155.841 207.633 136.609L215.78 115.387C221.705 100.797 232.074 100.466 239.48 114.724L250.589 136.609C255.033 145.894 265.402 146.888 272.808 138.599L282.436 127.988C288.361 121.687 297.248 121.687 303.173 127.988L307.617 132.63C317.986 143.904 328.354 141.914 330.576 128.319L339.464 78.249C346.87 34.1474 357.979 34.1474 364.645 78.5806L376.495 165.457C381.679 201.601 392.788 201.932 401.676 166.121L403.157 159.489C412.044 123.345 423.154 123.677 428.338 160.152L436.485 219.175C445.372 281.183 456.482 281.183 461.666 218.844L476.478 44.4268C481.663 -13.9332 492.772 -14.2648 501.66 43.7636L514.25 127.656C516.472 141.583 526.841 143.904 537.209 132.298L540.172 129.314C546.837 122.351 555.725 122.682 561.65 130.309L564.612 133.956C572.019 144.567 582.387 143.904 587.572 132.298L595.718 113.398C604.606 92.5074 615.715 93.1706 620.159 115.056L634.231 181.705C640.156 209.227 651.265 209.227 659.412 182.369L670.521 145.23C674.965 129.646 685.333 128.982 694.221 143.241L700.146 153.189C706.071 163.468 716.44 163.468 723.105 153.189L735.696 132.63C740.88 124.34 750.508 123.677 757.174 130.972L762.358 136.609C771.245 146.225 780.873 144.567 784.577 133.293L790.502 115.387C797.908 93.5022 809.017 93.8338 814.942 115.719L826.792 159.489C831.976 178.721 843.086 179.384 851.232 160.484L861.601 135.283C866.045 125.003 875.673 124.009 883.82 132.63L886.782 136.277C895.67 145.562 905.298 144.236 909.001 132.962L920.851 98.8077C928.998 75.9279 940.107 76.2595 945.291 99.4709L954.179 135.946C961.585 168.11 973.435 167.779 979.36 135.614L988.247 89.5231C995.654 49.069 1006.76 49.069 1013.43 89.8547L1020.09 133.956C1028.24 187.342 1039.35 187.011 1045.28 133.625L1048.98 101.792C1056.38 34.479 1067.49 34.479 1074.16 101.792L1081.57 175.737C1088.97 249.018 1100.08 248.687 1106.75 175.737L1114.89 86.8704C1122.3 4.96745 1133.41 4.96745 1140.07 86.8704L1149.7 201.932C1156.37 283.172 1167.48 283.504 1174.88 201.932L1183.03 115.056C1185.99 82.8913 1197.1 82.2281 1208.21 113.066L1217.1 139.593C1223.02 156.836 1234.13 157.168 1241.54 140.257L1249.69 121.024C1256.35 105.771 1266.72 105.771 1273.39 121.024L1279.31 134.951C1283.75 144.899 1294.12 146.225 1301.53 137.604L1310.42 127.988C1316.34 121.687 1325.23 121.687 1331.15 127.988L1336.34 133.625C1345.97 144.567 1356.34 142.578 1359.3 129.314L1371.15 74.2699C1380.04 32.1579 1391.14 32.4895 1396.33 74.9331L1409.66 195.964C1415.59 248.024 1426.69 248.024 1434.84 196.295L1445.21 127.656C1449.65 98.8077 1460.76 98.1445 1470.39 126.33L1477.8 148.215C1482.98 163.468 1493.35 164.131 1501.5 149.873L1509.64 134.951C1515.57 125.003 1525.2 124.672 1532.6 133.956C1540.01 144.567 1550.38 143.904 1555.56 132.298L1565.93 108.424C1573.34 90.1863 1584.45 90.5179 1590.37 109.419L1600 140.588" stroke="#9EEC87" stroke-opacity="0.5" stroke-miterlimit="10" stroke-linecap="round" stroke-linejoin="round"/>
</g>
<defs>
<clipPath id="clip0">
<rect width="1601" height="267" fill="white"/>
</clipPath>
</defs>
</svg>
