<svg width="1600" height="400" viewBox="0 0 1600 400" fill="none" xmlns="http://www.w3.org/2000/svg">
<path d="M1600 209.254C1582.98 121.011 1561.52 162.889 1557.82 178.344L1548.2 217.729C1539.32 253.625 1528.22 253.625 1523.04 217.231L1514.9 154.912C1506.02 88.1072 1494.91 88.1071 1489.73 155.411L1481.59 263.596C1476.41 330.401 1465.31 330.9 1456.43 264.094L1446.81 189.312C1443.11 159.898 1432.01 159.399 1421.65 188.315L1416.47 202.773C1410.55 219.724 1399.45 219.724 1392.05 203.271L1383.91 185.324C1377.99 172.86 1367.63 172.86 1360.23 184.825L1349.13 203.271C1344.69 211.248 1334.33 211.747 1326.93 204.767L1317.31 195.793C1311.39 190.309 1302.51 190.309 1296.58 195.793L1292.14 199.782C1281.78 209.254 1271.42 207.758 1269.2 195.793L1260.32 152.918C1252.92 115.029 1241.82 115.029 1235.16 152.918L1222.58 227.202C1217.4 258.112 1206.3 258.61 1197.42 227.7L1195.94 221.718C1187.06 190.808 1175.96 191.306 1170.78 222.216L1162.64 272.569C1153.76 325.415 1142.66 325.415 1137.48 272.071L1122.68 123.504C1117.5 73.6493 1106.4 73.6493 1097.51 123.005L1084.93 194.796C1082.71 206.761 1072.35 208.755 1061.99 198.785L1059.03 196.292C1052.37 190.309 1043.49 190.808 1037.57 196.79L1034.61 199.782C1027.21 208.755 1016.85 208.257 1011.67 198.286L1003.53 182.333C994.65 164.385 983.549 165.382 979.109 183.828L965.048 240.663C959.128 264.094 948.027 264.094 939.887 241.161L928.786 209.254C924.346 196.292 913.986 195.295 905.105 207.26L899.185 215.735C893.265 224.709 882.904 224.709 876.244 215.735L863.663 198.286C858.483 191.306 848.862 190.309 842.202 196.79L837.022 201.776C828.141 209.753 818.521 208.756 814.821 199.283L808.9 183.828C801.5 165.382 790.399 165.382 784.479 184.327L772.639 221.718C767.458 238.17 756.358 238.668 748.217 222.715L737.857 201.277C733.417 192.802 723.796 191.805 715.656 199.283L712.696 202.274C703.815 210.251 694.195 209.254 690.494 199.782L678.654 170.866C670.513 151.423 659.413 151.423 654.233 171.364L645.352 202.274C637.952 229.694 626.111 229.694 620.191 201.776L611.31 162.391C603.91 127.492 592.81 127.991 586.149 162.391L579.489 199.782C571.348 245.149 560.248 245.149 554.328 199.283L550.627 172.362C543.227 115.029 532.126 115.029 525.466 172.362L518.066 235.677C510.665 297.995 499.565 297.995 492.905 235.677L484.764 159.898C477.364 90.1013 466.263 90.1013 459.603 159.898L450.722 258.61C444.062 327.908 432.962 327.908 425.561 258.61L417.421 184.327C414.461 156.907 403.36 156.408 392.259 182.831L383.379 205.266C377.459 220.222 366.358 220.222 358.958 205.764L350.817 189.312C344.157 176.35 333.797 176.35 327.136 189.312L321.216 201.277C316.776 209.753 306.415 210.75 299.015 203.271L290.134 195.295C284.214 189.811 275.334 189.811 269.413 195.295L264.233 200.28C254.613 209.254 244.252 207.758 241.292 196.79L229.451 149.927C220.571 114.032 209.47 114.032 204.29 150.426L190.969 253.625C185.049 297.995 173.949 297.995 165.808 254.123L155.448 194.796C151.007 170.367 139.907 169.869 130.286 193.799L122.886 212.245C117.706 225.208 107.345 225.706 99.2048 213.741L91.0644 200.779C85.1441 192.303 75.5236 191.805 68.1233 199.782C60.7229 208.755 50.3624 208.257 45.1821 198.286L34.8216 177.846C27.4212 162.391 15.5806 157.405 3 200.28" stroke="#249C4D" stroke-opacity="0.8" stroke-miterlimit="10" stroke-linecap="round" stroke-linejoin="round"/>
<path d="M1 202.671L17.2937 159.452C26.9217 134.117 37.2904 135.607 41.7341 162.929L51.3622 231.483C60.2497 294.572 71.359 294.075 76.5433 230.489L84.6901 120.704C93.5776 3.46774 104.687 3.9645 109.871 121.201L118.018 310.965C123.202 428.699 134.312 428.699 143.199 311.462L152.827 180.316C156.53 128.653 167.64 127.659 178.008 178.329L183.193 203.664C189.118 232.973 200.227 233.47 207.633 204.658L215.78 172.865C221.705 151.007 232.074 150.51 239.48 171.871L250.589 204.658C255.033 218.567 265.402 220.057 272.808 207.638L282.436 191.742C288.361 182.303 297.248 182.303 303.173 191.742L307.617 198.697C317.986 215.587 328.354 212.606 330.576 192.239L339.464 117.227C346.87 51.1572 357.979 51.1572 364.645 117.724L376.495 247.876C381.679 302.024 392.788 302.52 401.676 248.87L403.157 238.934C412.044 184.787 423.154 185.284 428.338 239.928L436.485 328.352C445.372 421.247 456.482 421.247 461.666 327.856L476.478 66.5569C481.663 -20.8738 492.772 -21.3705 501.66 65.5634L514.25 191.245C516.472 212.109 526.841 215.587 537.209 198.2L540.172 193.729C546.837 183.297 555.725 183.794 561.65 195.219L564.612 200.684C572.019 216.58 582.387 215.587 587.572 198.2L595.718 169.884C604.606 138.588 615.715 139.581 620.159 172.368L634.231 272.218C640.156 313.449 651.265 313.449 659.412 273.211L670.521 217.574C674.965 194.226 685.333 193.232 694.221 214.593L700.146 229.496C706.071 244.896 716.44 244.896 723.105 229.496L735.696 198.697C740.88 186.277 750.508 185.284 757.174 196.213L762.358 204.658C771.245 219.064 780.873 216.58 784.577 199.69L790.502 172.865C797.908 140.078 809.017 140.575 814.942 173.361L826.792 238.934C831.976 267.747 843.086 268.74 851.232 240.425L861.601 202.671C866.045 187.271 875.673 185.781 883.82 198.697L886.782 204.161C895.67 218.07 905.298 216.083 909.001 199.193L920.851 148.026C928.998 113.75 940.107 114.246 945.291 149.02L954.179 203.664C961.585 251.85 973.435 251.354 979.36 203.167L988.247 134.117C995.654 73.5117 1006.76 73.5116 1013.43 134.614L1020.09 200.684C1028.24 280.663 1039.35 280.166 1045.28 200.187L1048.98 152.497C1056.38 51.654 1067.49 51.654 1074.16 152.497L1081.57 263.276C1088.97 373.061 1100.08 372.564 1106.75 263.276L1114.89 130.143C1122.3 7.44186 1133.41 7.44186 1140.07 130.143L1149.7 302.52C1156.37 424.228 1167.48 424.725 1174.88 302.52L1183.03 172.368C1185.99 124.182 1197.1 123.188 1208.21 169.387L1217.1 209.129C1223.02 234.96 1234.13 235.457 1241.54 210.122L1249.69 181.31C1256.35 158.459 1266.72 158.459 1273.39 181.31L1279.31 202.174C1283.75 217.077 1294.12 219.064 1301.53 206.148L1310.42 191.742C1316.34 182.303 1325.23 182.303 1331.15 191.742L1336.34 200.187C1345.97 216.58 1356.34 213.599 1359.3 193.729L1371.15 111.266C1380.04 48.1766 1391.14 48.6734 1396.33 112.259L1409.66 293.579C1415.59 371.571 1426.69 371.571 1434.84 294.075L1445.21 191.245C1449.65 148.026 1460.76 147.033 1470.39 189.258L1477.8 222.044C1482.98 244.896 1493.35 245.889 1501.5 224.528L1509.64 202.174C1515.57 187.271 1525.2 186.774 1532.6 200.684C1540.01 216.58 1550.38 215.587 1555.56 198.2L1565.93 162.433C1573.34 135.111 1584.45 135.607 1590.37 163.923L1600 210.619" stroke="#B0EF99" stroke-miterlimit="10" stroke-linecap="round" stroke-linejoin="round"/>
</svg>
