<?xml version="1.0" encoding="utf-8"?><svg viewBox="0 0 1600 400" xmlns="http://www.w3.org/2000/svg" xmlns:xlink="http://www.w3.org/1999/xlink"><style>:root>svg{display:none}:root>svg:target{display:block}</style><svg viewBox="0 0 287 65" id="sms-logo" xmlns="http://www.w3.org/2000/svg"><path d="M33.629.759a31.5 31.5 0 0 1 37.127 39.505 1 1 0 1 1-1.92-.556 29.5 29.5 0 0 0-51.64-26.295 1 1 0 1 1-1.58-1.227A31.5 31.5 0 0 1 33.629.76z"/><path d="M53.753 9.715a25.5 25.5 0 0 0-30.784 3.267 1 1 0 0 0 1.375 1.453A23.5 23.5 0 0 1 63.083 38a1 1 0 0 0 1.922.553 25.5 25.5 0 0 0-11.252-28.84z"/><path d="M39.952 12.008a19.5 19.5 0 0 1 19.262 24.974 1 1 0 1 1-1.92-.563 17.5 17.5 0 0 0-27.47-18.786 1 1 0 1 1-1.22-1.585 19.5 19.5 0 0 1 11.348-4.04z"/><path d="M48.141 20.37a13.5 13.5 0 0 0-15.865.424 1 1 0 1 0 1.218 1.586 11.5 11.5 0 0 1 18.034 12.382 1 1 0 0 0 1.918.567 13.499 13.499 0 0 0-5.305-14.958zM42 31.5a1.5 1.5 0 1 1-3 0 1.5 1.5 0 0 1 3 0z"/><path fill-rule="evenodd" clip-rule="evenodd" d="M33 31.5a7.5 7.5 0 1 1 15 0 7.5 7.5 0 0 1-15 0zm7.5-5.5a5.5 5.5 0 1 0 0 11 5.5 5.5 0 0 0 0-11z"/><path d="M25.041 42.916c1.66 1.367 2.49 3.232 2.49 5.596 0 2.422-1.006 4.365-3.017 5.83-2.012 1.465-4.678 2.197-7.998 2.197-3.73 0-6.72-.87-8.965-2.607-2.246-1.739-3.37-4.112-3.37-7.12H.579c0 2.5.645 4.717 1.934 6.65 1.308 1.934 3.213 3.438 5.713 4.513 2.52 1.074 5.283 1.61 8.29 1.61 4.395 0 7.93-1.015 10.606-3.046 2.695-2.031 4.043-4.727 4.043-8.086 0-2.129-.498-3.975-1.494-5.537-.996-1.563-2.48-2.9-4.453-4.014-1.973-1.133-4.873-2.217-8.701-3.252-3.828-1.054-6.612-2.265-8.35-3.632-1.738-1.368-2.607-3.135-2.607-5.303 0-2.344.966-4.238 2.9-5.684 1.934-1.465 4.531-2.197 7.793-2.197 3.36 0 6.035.889 8.027 2.666 1.992 1.758 2.989 4.092 2.989 7.002H30.9c0-2.402-.615-4.58-1.845-6.533-1.23-1.953-2.97-3.477-5.215-4.57-2.227-1.094-4.756-1.641-7.588-1.641-4.18 0-7.617 1.025-10.313 3.076-2.675 2.031-4.013 4.678-4.013 7.94 0 3.359 1.445 6.074 4.336 8.144 2.031 1.465 5.254 2.822 9.668 4.072 4.414 1.23 7.45 2.54 9.111 3.926zM41.306 42.094l.078 1.875c1.24-1.459 2.912-2.188 5.016-2.188 2.365 0 3.974.907 4.828 2.719a6.427 6.427 0 0 1 2.188-1.969c.906-.5 1.974-.75 3.203-.75 3.708 0 5.593 1.964 5.656 5.89V59h-2.89V47.844c0-1.209-.277-2.11-.829-2.703-.552-.605-1.479-.907-2.781-.907-1.073 0-1.963.323-2.672.97-.708.635-1.12 1.494-1.234 2.577V59h-2.907V47.922c0-2.458-1.203-3.688-3.609-3.688-1.896 0-3.193.808-3.89 2.422V59h-2.891V42.094h2.734zM78.14 52.703c.594.427.891 1.031.891 1.813 0 .74-.333 1.333-1 1.78-.656.438-1.531.657-2.625.657-1.187 0-2.146-.281-2.875-.844-.719-.573-1.104-1.343-1.156-2.312h-2.89c0 1 .291 1.932.874 2.797.594.854 1.412 1.52 2.454 2 1.041.479 2.24.718 3.593.718 1.927 0 3.495-.453 4.703-1.359 1.209-.917 1.813-2.13 1.813-3.64 0-.907-.219-1.672-.656-2.297-.428-.636-1.089-1.177-1.985-1.625-.896-.448-2.068-.834-3.515-1.157-1.438-.323-2.433-.661-2.985-1.015-.552-.354-.828-.88-.828-1.578 0-.74.297-1.339.89-1.797.594-.459 1.417-.688 2.47-.688 1.02 0 1.864.287 2.53.86.678.573 1.016 1.255 1.016 2.047h2.907c0-1.542-.6-2.808-1.797-3.797-1.188-.99-2.74-1.485-4.656-1.485-1.823 0-3.323.48-4.5 1.438-1.167.958-1.75 2.13-1.75 3.515 0 .834.203 1.552.609 2.157.416.604 1.052 1.125 1.906 1.562.865.438 2.026.813 3.484 1.125 1.47.313 2.495.688 3.079 1.125zM106.173 3.624c-2.686 0-4.8.86-6.343 2.578-1.543 1.719-2.314 4.072-2.314 7.06 0 3.057.727 5.43 2.182 7.12 1.455 1.69 3.535 2.534 6.24 2.534 1.797 0 3.448-.23 4.952-.689v1.319c-1.416.498-3.184.747-5.303.747-3.008 0-5.376-.972-7.105-2.915-1.728-1.943-2.592-4.658-2.592-8.145 0-2.177.41-4.096 1.23-5.756.83-1.66 2.017-2.94 3.56-3.838 1.552-.909 3.354-1.363 5.405-1.363 2.09 0 3.96.391 5.61 1.172l-.6 1.348a10.867 10.867 0 0 0-4.922-1.172zM116.676 24.293c-1.162 0-2.1-.146-2.813-.44v-1.508c.84.361 1.729.542 2.666.542.703 0 1.304-.117 1.802-.352.508-.244.977-.63 1.406-1.157.43-.537.952-1.43 1.568-2.68l-8.526-16.114h1.773l6.548 12.51c.341.674.649 1.372.922 2.095h.059l.366-.894L128.6 2.584h1.67l-6.871 15.059c-.439.966-.859 1.86-1.259 2.68a10.61 10.61 0 0 1-1.333 2.095 5.404 5.404 0 0 1-1.714 1.377c-.655.332-1.46.498-2.417.498zM142.721 24l-7.984-19.775h-.117c.078 1.21.117 2.45.117 3.72V24h-1.435V2.584h2.314l7.588 18.838h.088l7.588-18.838h2.256V24h-1.509V7.77c0-1.133.059-2.305.176-3.516h-.117L143.673 24h-.952zM159.2 2.584h1.436v14.004c0 .996-.039 2.666-.117 5.01h.087l12.657-19.014h1.508V24h-1.45V10.084c0-1.582.064-3.291.191-5.127h-.117L160.694 24H159.2V2.584zM106.451 59l-7.983-19.775h-.117c.078 1.21.117 2.45.117 3.72V59h-1.436V37.584h2.315l7.588 18.838h.087l7.588-18.838h2.256V59h-1.509V42.77c0-1.133.059-2.305.176-3.516h-.117L107.403 59h-.952zM134.635 59h-11.704V37.584h11.704v1.377h-10.21v8.1h9.638v1.377h-9.638v9.185h10.21V59zM155.143 64.405h-1.436V59h-15.601v5.405h-1.45v-6.811h1.538c1.446-2.51 2.715-5.694 3.809-9.551 1.094-3.867 1.704-7.353 1.831-10.459h9.111v20.01h2.198v6.811zm-3.721-6.811V38.99h-6.299c-.234 3.076-.85 6.392-1.846 9.947-.996 3.554-2.133 6.44-3.413 8.657h11.558zM159.083 59V37.584h1.494V59h-1.494zM176.954 51.441h-8.701L165.265 59h-1.656l8.614-21.504h.952L181.612 59h-1.684l-2.974-7.559zm-8.159-1.347h7.661l-2.915-7.72a37.676 37.676 0 0 1-.879-2.52 23.67 23.67 0 0 1-.864 2.55l-3.003 7.69zM201.593 38.624c-2.686 0-4.8.86-6.343 2.578-1.543 1.719-2.314 4.072-2.314 7.06 0 3.057.727 5.43 2.182 7.12 1.455 1.69 3.535 2.534 6.24 2.534 1.797 0 3.448-.23 4.952-.688v1.318c-1.416.498-3.184.747-5.303.747-3.008 0-5.376-.972-7.105-2.915-1.728-1.943-2.592-4.658-2.592-8.145 0-2.177.41-4.096 1.23-5.756.83-1.66 2.017-2.94 3.56-3.838 1.552-.909 3.354-1.363 5.405-1.363 2.09 0 3.96.391 5.61 1.172l-.6 1.348a10.867 10.867 0 0 0-4.922-1.172zM222.789 59h-11.704V37.584h11.704v1.377h-10.21v8.1h9.639v1.377h-9.639v9.185h10.21V59zM240.528 43.736c0 2.07-.703 3.658-2.109 4.761-1.406 1.104-3.399 1.655-5.977 1.655h-3.31V59h-1.494V37.584h5.244c5.097 0 7.646 2.05 7.646 6.152zm-11.396 5.127h2.944c2.412 0 4.155-.395 5.23-1.186 1.074-.801 1.611-2.095 1.611-3.882 0-1.65-.508-2.871-1.523-3.662-1.016-.801-2.588-1.201-4.717-1.201h-3.545v9.931zM245.187 37.584h5.874c2.646 0 4.589.45 5.83 1.348 1.24.898 1.86 2.255 1.86 4.072 0 1.24-.381 2.275-1.143 3.105-.752.82-1.855 1.348-3.31 1.582v.088c1.709.254 2.964.796 3.764 1.626.811.82 1.216 1.968 1.216 3.443 0 1.972-.654 3.49-1.963 4.555-1.308 1.065-3.164 1.597-5.566 1.597h-6.562V37.584zm1.494 9.536h4.716c2.012 0 3.472-.332 4.38-.996.918-.674 1.377-1.724 1.377-3.15 0-1.425-.517-2.46-1.552-3.105-1.026-.644-2.559-.967-4.6-.967h-4.321v8.218zm0 1.319v9.243h5.039c3.965 0 5.947-1.612 5.947-4.834 0-2.94-2.09-4.41-6.27-4.41h-4.716zM263.995 59V37.584h1.494V59h-1.494zM280.694 38.624c-2.685 0-4.799.86-6.342 2.578-1.543 1.719-2.315 4.072-2.315 7.06 0 3.057.728 5.43 2.183 7.12 1.455 1.69 3.535 2.534 6.24 2.534 1.797 0 3.447-.23 4.951-.688v1.318c-1.416.498-3.183.747-5.303.747-3.007 0-5.376-.972-7.104-2.915-1.729-1.943-2.593-4.658-2.593-8.145 0-2.177.41-4.096 1.231-5.756.83-1.66 2.016-2.94 3.559-3.838 1.553-.909 3.355-1.363 5.405-1.363 2.09 0 3.96.391 5.611 1.172l-.601 1.348a10.864 10.864 0 0 0-4.922-1.172z"/></svg><svg fill="none" viewBox="0 0 1600 267" id="wave-1" xmlns="http://www.w3.org/2000/svg"><g clip-path="url(#bclip0)" stroke-miterlimit="10" stroke-linecap="round" stroke-linejoin="round"><path d="M1600 139.677c-17.02-58.902-38.48-30.948-42.18-20.632l-9.62 26.289c-8.88 23.961-19.98 23.961-25.16-.332l-8.14-41.598c-8.88-44.592-19.99-44.592-25.17.333l-8.14 72.213c-5.18 44.593-16.28 44.925-25.16.333l-9.62-49.917c-3.7-19.634-14.8-19.967-25.16-.666l-5.18 9.651c-5.92 11.315-17.02 11.315-24.42.333l-8.14-11.98c-5.92-8.32-16.28-8.32-23.68-.333l-11.1 12.313c-4.44 5.324-14.8 5.657-22.2.998l-9.62-5.99c-5.92-3.66-14.8-3.66-20.73 0l-4.44 2.662c-10.36 6.323-20.72 5.325-22.94-2.662l-8.88-28.619c-7.4-25.291-18.5-25.291-25.16 0l-12.58 49.584c-5.18 20.633-16.28 20.965-25.16.333l-1.48-3.993c-8.88-20.633-19.98-20.3-25.16.332l-8.14 33.611c-8.88 35.275-19.98 35.275-25.16-.333l-14.8-99.168c-5.18-33.278-16.28-33.278-25.17-.333l-12.58 47.921c-2.22 7.986-12.58 9.317-22.94 2.662l-2.96-1.664c-6.66-3.993-15.54-3.661-21.46.333l-2.96 1.996c-7.4 5.99-17.76 5.658-22.94-.998l-8.14-10.649c-8.88-11.98-19.981-11.315-24.421.998l-14.061 37.937c-5.92 15.641-17.021 15.641-25.161.333l-11.101-21.298c-4.44-8.652-14.8-9.318-23.681-1.331l-5.92 5.657c-5.92 5.99-16.281 5.99-22.941 0l-12.581-11.647c-5.18-4.659-14.801-5.324-21.461-.998l-5.18 3.327c-8.881 5.325-18.501 4.659-22.201-1.663l-5.921-10.317c-7.4-12.313-18.501-12.312-24.421.333l-11.84 24.959c-5.181 10.981-16.281 11.314-24.422.665l-10.36-14.309c-4.44-5.658-14.061-6.323-22.201-1.331l-2.96 1.996c-8.881 5.325-18.501 4.659-22.202-1.664l-11.84-19.301c-8.141-12.978-19.241-12.978-24.421.333l-8.881 20.632c-7.4 18.303-19.241 18.303-25.161-.333l-8.881-26.289c-7.4-23.295-18.5-22.962-25.161 0l-6.66 24.958c-8.141 30.283-19.241 30.283-25.161-.332l-3.701-17.971c-7.4-38.27-18.501-38.27-25.161 0l-7.4 42.263c-7.401 41.598-18.501 41.598-25.161 0l-8.141-50.582c-7.4-46.59-18.501-46.59-25.161 0l-8.881 65.89c-6.66 46.257-17.76 46.257-25.161 0l-8.14-49.584c-2.96-18.303-14.061-18.636-25.162-.998l-8.88 14.975c-5.92 9.983-17.021 9.983-24.421.333l-8.141-10.982c-6.66-8.652-17.02-8.652-23.681 0l-5.92 7.987c-4.44 5.657-14.801 6.322-22.201 1.331l-8.881-5.325c-5.92-3.66-14.8-3.66-20.721 0l-5.18 3.328c-9.62 5.99-19.981 4.992-22.941-2.329l-11.841-31.282c-8.88-23.96-19.981-23.96-25.161.333l-13.321 68.886c-5.92 29.617-17.02 29.617-25.161.332l-10.36-39.6c-4.441-16.307-15.541-16.639-25.162-.666l-7.4 12.313c-5.18 8.652-15.541 8.985-23.681.998l-8.14-8.652c-5.92-5.657-15.541-5.99-22.942-.666-7.4 5.99-17.76 5.658-22.94-.998l-10.361-13.644C27.422 108.396 15.58 105.068 3 133.687" stroke="#249C4D" stroke-opacity=".8"/><path d="M1 135.283l16.294-28.849c9.628-16.91 19.996-15.916 24.44 2.321l9.628 45.76c8.888 42.112 19.997 41.78 25.181-.663L84.69 80.57c8.888-78.255 19.997-77.924 25.181.332l8.147 126.667c5.184 78.588 16.294 78.588 25.181.332l9.628-87.54c3.703-34.485 14.813-35.149 25.181-1.326l5.185 16.911c5.925 19.564 17.034 19.895 24.44.663l8.147-21.222c5.925-14.59 16.294-14.921 23.7-.663l11.109 21.885c4.444 9.285 14.813 10.279 22.219 1.99l9.628-10.611c5.925-6.301 14.812-6.301 20.737 0l4.444 4.642c10.369 11.274 20.737 9.284 22.959-4.311l8.888-50.07c7.406-44.102 18.515-44.102 25.181.332l11.85 86.876c5.184 36.144 16.293 36.475 25.181.664l1.481-6.632c8.887-36.144 19.997-35.812 25.181.663l8.147 59.023c8.887 62.008 19.997 62.008 25.181-.331l14.812-174.417c5.185-58.36 16.294-58.692 25.182-.663l12.59 83.892c2.222 13.927 12.591 16.248 22.959 4.642l2.963-2.984c6.665-6.963 15.553-6.632 21.478.995l2.962 3.647c7.407 10.611 17.775 9.948 22.96-1.658l8.146-18.9c8.888-20.89 19.997-20.227 24.441 1.658l14.072 66.649c5.925 27.522 17.034 27.522 25.181.664l11.109-37.139c4.444-15.584 14.812-16.248 23.7-1.989l5.925 9.948c5.925 10.279 16.294 10.279 22.959 0l12.591-20.559c5.184-8.29 14.812-8.953 21.478-1.658l5.184 5.637c8.887 9.616 18.515 7.958 22.219-3.316l5.925-17.906c7.406-21.885 18.515-21.553 24.44.332l11.85 43.77c5.184 19.232 16.294 19.895 24.44.995l10.369-25.201c4.444-10.28 14.072-11.274 22.219-2.653l2.962 3.647c8.888 9.285 18.516 7.959 22.219-3.315l11.85-34.154c8.147-22.88 19.256-22.549 24.44.663l8.888 36.475c7.406 32.164 19.256 31.833 25.181-.332l8.887-46.09c7.407-40.455 18.513-40.455 25.183.33l6.66 44.102c8.15 53.386 19.26 53.055 25.19-.331l3.7-31.833c7.4-67.313 18.51-67.313 25.18 0l7.41 73.945c7.4 73.281 18.51 72.95 25.18 0l8.14-88.867c7.41-81.903 18.52-81.903 25.18 0l9.63 115.062c6.67 81.24 17.78 81.572 25.18 0l8.15-86.876c2.96-32.165 14.07-32.828 25.18-1.99l8.89 26.527c5.92 17.243 17.03 17.575 24.44.664l8.15-19.233c6.66-15.253 17.03-15.253 23.7 0l5.92 13.927c4.44 9.948 14.81 11.274 22.22 2.653l8.89-9.616c5.92-6.301 14.81-6.301 20.73 0l5.19 5.637c9.63 10.942 20 8.953 22.96-4.311l11.85-55.044c8.89-42.112 19.99-41.78 25.18.663l13.33 121.031c5.93 52.06 17.03 52.06 25.18.331l10.37-68.639c4.44-28.848 15.55-29.512 25.18-1.326l7.41 21.885c5.18 15.253 15.55 15.916 23.7 1.658l8.14-14.922c5.93-9.948 15.56-10.279 22.96-.995 7.41 10.611 17.78 9.948 22.96-1.658l10.37-23.874c7.41-18.238 18.52-17.906 24.44.995l9.63 31.169" stroke="#9EEC87" stroke-opacity=".5"/></g><defs><clipPath id="bclip0"><path fill="#fff" d="M0 0h1601v267H0z"/></clipPath></defs></svg><svg fill="none" viewBox="0 0 1600 400" id="wave-2" xmlns="http://www.w3.org/2000/svg"><path d="M1600 209.254c-17.02-88.243-38.48-46.365-42.18-30.91l-9.62 39.385c-8.88 35.896-19.98 35.896-25.16-.498l-8.14-62.319c-8.88-66.805-19.99-66.805-25.17.499l-8.14 108.185c-5.18 66.805-16.28 67.304-25.16.498l-9.62-74.782c-3.7-29.414-14.8-29.913-25.16-.997l-5.18 14.458c-5.92 16.951-17.02 16.951-24.42.498l-8.14-17.947c-5.92-12.464-16.28-12.464-23.68-.499l-11.1 18.446c-4.44 7.977-14.8 8.476-22.2 1.496l-9.62-8.974c-5.92-5.484-14.8-5.484-20.73 0l-4.44 3.989c-10.36 9.472-20.72 7.976-22.94-3.989l-8.88-42.875c-7.4-37.889-18.5-37.889-25.16 0l-12.58 74.284c-5.18 30.91-16.28 31.408-25.16.498l-1.48-5.982c-8.88-30.91-19.98-30.412-25.16.498l-8.14 50.353c-8.88 52.846-19.98 52.846-25.16-.498l-14.8-148.567c-5.18-49.855-16.28-49.855-25.17-.499l-12.58 71.791c-2.22 11.965-12.58 13.959-22.94 3.989l-2.96-2.493c-6.66-5.983-15.54-5.484-21.46.498l-2.96 2.992c-7.4 8.973-17.76 8.475-22.94-1.496l-8.14-15.953c-8.88-17.948-19.981-16.951-24.421 1.495l-14.061 56.835c-5.92 23.431-17.021 23.431-25.161.498l-11.101-31.907c-4.44-12.962-14.8-13.959-23.681-1.994l-5.92 8.475c-5.92 8.974-16.281 8.974-22.941 0l-12.581-17.449c-5.18-6.98-14.801-7.977-21.461-1.496l-5.18 4.986c-8.881 7.977-18.501 6.98-22.201-2.493l-5.921-15.455c-7.4-18.446-18.501-18.446-24.421.499l-11.84 37.391c-5.181 16.452-16.281 16.95-24.422.997l-10.36-21.438c-4.44-8.475-14.061-9.472-22.201-1.994l-2.96 2.991c-8.881 7.977-18.501 6.98-22.202-2.492l-11.84-28.916c-8.141-19.443-19.241-19.443-24.421.498l-8.881 30.91c-7.4 27.42-19.241 27.42-25.161-.498l-8.881-39.385c-7.4-34.899-18.5-34.4-25.161 0l-6.66 37.391c-8.141 45.367-19.241 45.367-25.161-.499l-3.701-26.921c-7.4-57.333-18.501-57.333-25.161 0l-7.4 63.315c-7.401 62.318-18.501 62.318-25.161 0l-8.141-75.779c-7.4-69.797-18.501-69.797-25.161 0l-8.881 98.712c-6.66 69.298-17.76 69.298-25.161 0l-8.14-74.283c-2.96-27.42-14.061-27.919-25.162-1.496l-8.88 22.435c-5.92 14.956-17.021 14.956-24.421.498l-8.141-16.452c-6.66-12.962-17.02-12.962-23.681 0l-5.92 11.965c-4.44 8.476-14.801 9.473-22.201 1.994l-8.881-7.976c-5.92-5.484-14.8-5.484-20.721 0l-5.18 4.985c-9.62 8.974-19.981 7.478-22.941-3.49l-11.841-46.863c-8.88-35.895-19.981-35.895-25.161.499l-13.321 103.199c-5.92 44.37-17.02 44.37-25.161.498l-10.36-59.327c-4.441-24.429-15.541-24.927-25.162-.997l-7.4 18.446c-5.18 12.963-15.541 13.461-23.681 1.496l-8.14-12.962c-5.92-8.476-15.541-8.974-22.942-.997-7.4 8.973-17.76 8.475-22.94-1.496l-10.361-20.44C27.422 162.391 15.58 157.405 3 200.28" stroke="#249C4D" stroke-opacity=".8" stroke-miterlimit="10" stroke-linecap="round" stroke-linejoin="round"/><path d="M1 202.671l16.294-43.219c9.628-25.335 19.996-23.845 24.44 3.477l9.628 68.554c8.888 63.089 19.997 62.592 25.181-.994l8.147-109.785c8.888-117.236 19.997-116.74 25.181.497l8.147 189.764c5.184 117.734 16.294 117.734 25.181.497l9.628-131.146c3.703-51.663 14.813-52.657 25.181-1.987l5.185 25.335c5.925 29.309 17.034 29.806 24.44.994l8.147-31.793c5.925-21.858 16.294-22.355 23.7-.994l11.109 32.787c4.444 13.909 14.813 15.399 22.219 2.98l9.628-15.896c5.925-9.439 14.812-9.439 20.737 0l4.444 6.955c10.369 16.89 20.737 13.909 22.959-6.458l8.888-75.012c7.406-66.07 18.515-66.07 25.181.497l11.85 130.152c5.184 54.148 16.293 54.644 25.181.994l1.481-9.936c8.887-54.147 19.997-53.65 25.181.994l8.147 88.424c8.887 92.895 19.997 92.895 25.181-.496l14.812-261.3c5.185-87.43 16.294-87.926 25.182-.993l12.59 125.682c2.222 20.864 12.591 24.342 22.959 6.955l2.963-4.471c6.665-10.432 15.553-9.935 21.478 1.49l2.962 5.465c7.407 15.896 17.775 14.903 22.96-2.484l8.146-28.316c8.888-31.296 19.997-30.303 24.441 2.484l14.072 99.85c5.925 41.231 17.034 41.231 25.181.993l11.109-55.637c4.444-23.348 14.812-24.342 23.7-2.981l5.925 14.903c5.925 15.4 16.294 15.4 22.959 0l12.591-30.799c5.184-12.42 14.812-13.413 21.478-2.484l5.184 8.445c8.887 14.406 18.515 11.922 22.219-4.968l5.925-26.825c7.406-32.787 18.515-32.29 24.44.496l11.85 65.573c5.184 28.813 16.294 29.806 24.44 1.491l10.369-37.754c4.444-15.4 14.072-16.89 22.219-3.974l2.962 5.464c8.888 13.909 18.516 11.922 22.219-4.968l11.85-51.167c8.147-34.276 19.256-33.78 24.44.994l8.888 54.644c7.406 48.186 19.256 47.69 25.181-.497l8.887-69.05c7.407-60.605 18.513-60.605 25.183.497l6.66 66.07c8.15 79.979 19.26 79.482 25.19-.497l3.7-47.69c7.4-100.843 18.51-100.843 25.18 0l7.41 110.779c7.4 109.785 18.51 109.288 25.18 0l8.14-133.133c7.41-122.701 18.52-122.701 25.18 0l9.63 172.377c6.67 121.708 17.78 122.205 25.18 0l8.15-130.152c2.96-48.186 14.07-49.18 25.18-2.981l8.89 39.742c5.92 25.831 17.03 26.328 24.44.993l8.15-28.812c6.66-22.851 17.03-22.851 23.7 0l5.92 20.864c4.44 14.903 14.81 16.89 22.22 3.974l8.89-14.406c5.92-9.439 14.81-9.439 20.73 0l5.19 8.445c9.63 16.393 20 13.412 22.96-6.458l11.85-82.463c8.89-63.09 19.99-62.593 25.18.993l13.33 181.32c5.93 77.992 17.03 77.992 25.18.496l10.37-102.83c4.44-43.219 15.55-44.212 25.18-1.987l7.41 32.786c5.18 22.852 15.55 23.845 23.7 2.484l8.14-22.354c5.93-14.903 15.56-15.4 22.96-1.49 7.41 15.896 17.78 14.903 22.96-2.484l10.37-35.767c7.41-27.322 18.52-26.826 24.44 1.49l9.63 46.696" stroke="#B0EF99" stroke-miterlimit="10" stroke-linecap="round" stroke-linejoin="round"/></svg></svg>